<svg xmlns="http://www.w3.org/2000/svg" viewBox="65 98.4 177 178">
<!-- SVG created with Arrow, by QuiverAI (https://quiver.ai) -->
  <style type="text/css">.cls-0 {fill:#2784AD;}
.cls-1 {fill:#5CDDA2;}
.cls-2 {fill:#5DDBA2;}</style>
  <path class="cls-0" d="m180.7 242.8v-22.8l-10.6 1-0.1 2v19.9c-2.7 1.3-4.7 3.6-5.8 6.5h-25.5c-1.1 0.1-0.5 8.6-0.5 8.6h25.8c2 3.6 5.9 6.4 11 6.4 8 0 12.1-6 12.1-10.8s-2-8.9-6.4-10.8z"/>
  <polygon class="cls-0" points="177.8 172.2 169.2 160.6 169.1 160.6 169.1 179 177.8 183"/>
  <polygon class="cls-0" points="169.1 213.9 177.9 203.1 178 194 169.1 194.9"/>
  <path class="cls-0" d="m122 209.6-31.3-0.1-0.1-40.9c1.6-1 2.9-2.4 3.7-4.1h38v-32.5c3.7-1.7 6.6-5.4 6.6-9.3 0-1.2-1.2-6.8-1.6-6.8h-3.3c-1.5-0.9-3.2-1.4-6.4-1.4s-6.5 0.5-8 1.4l1.8 16.1c0.4 0.2-0.1 0.4 0.2 0.7v21.6h-27.3c-1.6-3.1-4.8-5.1-8.9-5.1-5.2 0-10.3 3.9-10.3 10 0 3.4 1.9 6.8 4.4 8.9l0.1 51.2h42l0.4-3.3v-6.4z"/>
  <path class="cls-0" d="m180.8 131.7c3.6-1.5 6.3-5.5 6.2-10.2 0-6-4.4-12-12-12-4.5 0-8.4 2.2-10.7 6.4-0.9 1.7-1.5 3.6-1.2 5.7 0.2 4.3 2.6 8 6 9.9v23.9h11.6l0.1-11.5v-12.2z"/>
  <path class="cls-1" d="m137.7 115.9c1.9 3.1 1.9 6.7 0.8 9.2h24.9c-0.9-3.1-0.7-6.7 0.7-9.2h-26.4z"/>
  <path class="cls-2" d="m222.6 203.6c-0.5 0-0.9 0.1-1.4 0.1l-15.3-17.7 12.8-16.5c0.4 0 0.8 0.1 1.3 0.1 4.6 0 9.4-4 9.4-10.2 0-5.2-3.8-10.3-9.4-10.4-6.5-0.2-10.9 4.7-10.9 9.4 0 1.8 0.4 3.4 1.2 5.5l-10.3 14.4-17.5-23h-13.1l24.2 31.6-24.5 32.1v23.9c-3.5 1.7-6.3 5.6-6.3 10.4 0 5.4 4 11.5 12.2 11.5 7.5 0 12.1-5.7 12.1-11.2 0-1.6-0.2-2.7-0.7-4.7h-8.5v-24.8l21.4-29.1 12.4 15.3c-0.3 0.9-0.5 2-0.5 3.2 0 5.4 4.2 10.1 10 10.1 5.5 0 10.2-4.4 10.2-10 0-5.3-3.9-9.9-8.8-10z"/>
  <path class="cls-2" d="m171.1 177.3c-4-0.1-7.4 2-9 5.3l-40.9 0.1 0.1 60.2c-3.8 1.7-6.8 5.7-6.8 10.6s4 11.2 12.1 11.2c4.9 0 8.8-2.3 11-6.8 0.7-1.5 1.1-3 1.1-4.4 0-3.9-2-8.3-6.3-10.6l-0.1-50.7h29.7c1.7 3 4.5 5.2 8.7 5.2 5.5 0 10.4-3.8 10.4-10 0-4.5-3.1-9.6-10-10.1z"/>
  <path class="cls-0" d="m126.9 109.4c-6.9 0-12.2 5.6-12.2 11.4 0 4.4 2.3 8.6 6.6 10.8 1.4 1.1 3.7 1.8 5.5 1.8 6.1 0 12.1-4.7 12.2-11.7 0.1-6.7-4.8-12.3-12.1-12.3z"/>
  <path class="cls-1" d="m126.9 116.2c-2.6 0-4.8 2.2-4.8 4.8 0 2.4 1.7 4.9 4.8 4.9 2.6 0 5-1.9 5-4.9 0.2-2.3-2-4.8-5-4.8z"/>
  <path class="cls-1" d="m175 116.2c-2.7 0-5 2.4-5 4.8 0 2.5 1.8 4.9 4.6 5.1 2.4 0.1 5.3-1.6 5.3-4.9 0.2-2.5-2-5-4.9-5z"/>
</svg>